<svg xmlns="http://www.w3.org/2000/svg" width="682.667" height="682.667" viewBox="0 0 512 512" preserveAspectRatio="xMidYMid meet" xmlns:v="https://vecta.io/nano"><path d="M152.5 82l-81.3 30.8c-4.1 3.2-70.1 94.5-70.8 98-.9 4.5 1.5 10.2 5.2 12.7 1.7 1.2 15.4 5.2 32.2 9.5l29.2 7.5v72c0 66.6.1 72.3 1.8 75.5.9 1.9 3.1 4.2 4.7 5.1C78.4 396 286 459 290.4 459c3.3 0 16.1-6.8 80-42.1l78.4-44.3c1.3-1.2 2.9-3 3.5-4.1.9-1.4 1.3-22.3 1.7-74.9l.5-72.8 26-12.4c14.6-7 27-13.5 28.2-14.9 2.7-3.1 3.8-8.5 2.5-12.2-1.4-4.1-66.1-96.2-68.7-97.9-1.2-.8-5.8-1.9-10.1-2.4-4.4-.5-49.4-7-100.2-14.4L235.7 53c-3 .1-27.5 8.6-83.2 29zm161 8l75.1 11.2c.1.2-22.4 10.8-49.9 23.6l-50.2 23.4-77.5-14.3-79.9-14.8c-1.7-.5 11.6-5.8 51-20.3l55-19.7c.9-.1 35.3 4.8 76.4 10.9zM455 144.6l23.7 34.8c.2 1-134.5 66.2-135.2 65.4-.8-.9-35.5-75.6-35.5-76.4 0-.9 120.6-57.3 122.5-57.3.6 0 11.6 15.1 24.5 33.5zM177 154l89.3 16.8c1.4.6-2.4 6.9-24.9 40.7l-26.8 40.2c-.2.2-178.9-45.8-179.4-46.2-.2-.2 10.9-15.6 24.5-34.4 22.7-31.1 25-34 27.3-33.6 1.4.3 41.9 7.7 90 16.5zm99.8 274.6c-.3.3-183-55.4-183.5-56-.2-.1-.2-28.4-.1-62.7l.3-62.5 61 15.8 65.3 16c2.8.1 5.2-.5 7-1.8 1.5-1.1 13.3-17.8 26.2-37.1l23.5-35 .3 111.5v111.8zm36-188.1l11.7 24.9c3.7 7.5 7.2 9.9 14 9.3 3.9-.4 13.8-4.7 46.8-20.6l42.2-20.1c.3 0 .4 27.3.3 60.7l-.3 60.8-61 33.8-62.2 34.4c-1 .4-1.3-20.2-1.3-101.3l.4-101.3c.3.2 4.5 9 9.4 19.4z"/></svg>