<svg width="310" height="311" viewBox="0 0 310 311" fill="none" xmlns="http://www.w3.org/2000/svg">
<g clip-path="url(#clip0_3_33)">
<path d="M29.8114 261.99L27.0812 251.22C22.2404 249.168 17.2878 247.391 12.2469 245.897L11.9023 250.902L10.5047 245.387C4.25307 243.6 0 242.814 0 242.814C0 242.814 5.74345 264.664 17.7939 281.369L31.8337 283.836L20.9266 285.409C22.4424 287.233 24.0714 288.96 25.8039 290.58C43.3319 306.854 62.855 314.32 69.4096 307.257C75.9643 300.193 67.0686 281.275 49.5406 265.003C44.1068 259.958 37.2808 255.91 30.4478 252.723L29.8114 261.99Z" fill="#F2F2F2"/>
<path d="M55.776 250.292L59.0048 239.661C55.9216 235.401 52.6007 231.319 49.0578 227.434L46.1761 231.54L47.8292 226.097C43.4005 221.336 40.1663 218.464 40.1663 218.464C40.1663 218.464 33.7923 240.139 35.4737 260.669L46.2177 270.04L36.066 265.747C36.4212 268.093 36.9235 270.414 37.5701 272.697C44.1651 295.69 57.0192 312.176 66.2803 309.518C75.5414 306.86 77.7031 286.066 71.1081 263.073C69.0638 255.945 65.3122 248.95 61.1099 242.689L55.776 250.292Z" fill="#F2F2F2"/>
<path d="M216.316 73.6761H214.613V27.0101C214.613 23.4631 213.915 19.9508 212.558 16.6738C211.201 13.3968 209.212 10.4192 206.704 7.91107C204.197 5.40295 201.22 3.4134 197.943 2.05602C194.667 0.698634 191.156 0 187.61 0H88.7609C81.5991 0 74.7305 2.8457 69.6663 7.91107C64.6022 12.9764 61.7571 19.8466 61.7571 27.0101V283.028C61.7571 286.575 62.4556 290.087 63.8127 293.364C65.1697 296.641 67.1588 299.619 69.6663 302.127C72.1739 304.635 75.1508 306.625 78.427 307.982C81.7033 309.339 85.2147 310.038 88.7609 310.038H187.61C194.771 310.038 201.64 307.192 206.704 302.127C211.768 297.061 214.613 290.191 214.613 283.028V106.894H216.316L216.316 73.6761Z" fill="#E6E6E6"/>
<path d="M188.699 7.02446H175.797C176.391 8.47964 176.617 10.0585 176.457 11.6218C176.296 13.1852 175.754 14.6851 174.877 15.9894C174.001 17.2937 172.817 18.3624 171.431 19.1013C170.044 19.8403 168.497 20.2267 166.926 20.2267H110.296C108.725 20.2266 107.178 19.84 105.792 19.1011C104.405 18.3621 103.221 17.2934 102.345 15.9891C101.469 14.6848 100.926 13.1849 100.766 11.6216C100.606 10.0583 100.832 8.47957 101.426 7.02446H89.3744C84.026 7.02446 78.8966 9.1496 75.1147 12.9324C71.3329 16.7151 69.2082 21.8457 69.2082 27.1953V282.841C69.2082 288.191 71.3329 293.322 75.1147 297.104C78.8966 300.887 84.026 303.012 89.3744 303.012H188.699C194.047 303.012 199.177 300.887 202.959 297.104C206.741 293.322 208.865 288.191 208.865 282.841V27.1949C208.865 21.8453 206.74 16.7149 202.959 12.9322C199.177 9.14954 194.047 7.02446 188.699 7.02446Z" fill="white"/>
<path d="M126.38 108.861C126.38 107.074 126.85 105.318 127.744 103.771C128.637 102.224 129.922 100.939 131.47 100.046C129.923 99.1527 128.168 98.6822 126.382 98.682C124.596 98.6818 122.841 99.1519 121.294 100.045C119.747 100.938 118.462 102.223 117.568 103.771C116.675 105.318 116.205 107.073 116.205 108.86C116.205 110.647 116.675 112.402 117.568 113.95C118.462 115.497 119.747 116.782 121.294 117.675C122.841 118.569 124.596 119.039 126.382 119.038C128.168 119.038 129.923 118.568 131.47 117.674C129.923 116.782 128.637 115.497 127.744 113.95C126.85 112.403 126.38 110.648 126.38 108.861Z" fill="#CCCCCC"/>
<path d="M139.173 108.861C139.172 107.074 139.643 105.318 140.536 103.771C141.43 102.224 142.715 100.939 144.263 100.046C142.716 99.1527 140.961 98.6822 139.175 98.682C137.388 98.6818 135.633 99.1519 134.086 100.045C132.539 100.938 131.254 102.223 130.361 103.771C129.468 105.318 128.997 107.073 128.997 108.86C128.997 110.647 129.468 112.402 130.361 113.95C131.254 115.497 132.539 116.782 134.086 117.675C135.633 118.569 137.388 119.039 139.175 119.038C140.961 119.038 142.716 118.568 144.263 117.674C142.715 116.782 141.43 115.497 140.536 113.95C139.643 112.403 139.172 110.648 139.173 108.861Z" fill="#CCCCCC"/>
<path d="M151.675 119.039C157.295 119.039 161.851 114.482 161.851 108.86C161.851 103.239 157.295 98.6822 151.675 98.6822C146.055 98.6822 141.499 103.239 141.499 108.86C141.499 114.482 146.055 119.039 151.675 119.039Z" fill="#505050"/>
<path d="M168.681 140.651H109.374C108.809 140.651 108.268 140.426 107.869 140.027C107.469 139.627 107.245 139.086 107.244 138.521V79.1998C107.245 78.6351 107.469 78.0936 107.869 77.6943C108.268 77.295 108.809 77.0703 109.374 77.0697H168.681C169.246 77.0703 169.787 77.295 170.186 77.6943C170.585 78.0936 170.81 78.6351 170.811 79.1998V138.521C170.81 139.086 170.585 139.627 170.186 140.027C169.787 140.426 169.246 140.651 168.681 140.651ZM109.374 77.9222C109.035 77.9226 108.71 78.0573 108.471 78.2969C108.231 78.5365 108.096 78.8614 108.096 79.2002V138.521C108.096 138.86 108.231 139.185 108.471 139.425C108.71 139.664 109.035 139.799 109.374 139.799H168.681C169.02 139.799 169.345 139.664 169.584 139.425C169.824 139.185 169.958 138.86 169.959 138.521V79.2002C169.958 78.8614 169.824 78.5365 169.584 78.2969C169.345 78.0573 169.02 77.9226 168.681 77.9222H109.374Z" fill="#CCCCCC"/>
<path d="M181.924 186.124H90.9638V186.976H181.924V186.124Z" fill="#CCCCCC"/>
<path d="M93.8364 180.803C95.4229 180.803 96.709 179.517 96.709 177.93C96.709 176.343 95.4229 175.057 93.8364 175.057C92.2499 175.057 90.9638 176.343 90.9638 177.93C90.9638 179.517 92.2499 180.803 93.8364 180.803Z" fill="#505050"/>
<path d="M181.924 214.854H90.9638V215.706H181.924V214.854Z" fill="#CCCCCC"/>
<path d="M93.8364 209.535C95.4229 209.535 96.709 208.248 96.709 206.661C96.709 205.074 95.4229 203.788 93.8364 203.788C92.2499 203.788 90.9638 205.074 90.9638 206.661C90.9638 208.248 92.2499 209.535 93.8364 209.535Z" fill="#505050"/>
<path d="M180.259 247.571H151.513C151.017 247.571 150.541 247.373 150.189 247.022C149.838 246.671 149.641 246.195 149.64 245.698V235.621C149.641 235.124 149.838 234.648 150.189 234.297C150.541 233.945 151.017 233.748 151.513 233.747H180.259C180.755 233.748 181.232 233.945 181.583 234.297C181.934 234.648 182.131 235.124 182.132 235.621V245.698C182.131 246.195 181.934 246.671 181.583 247.022C181.232 247.373 180.755 247.571 180.259 247.571Z" fill="#505050"/>
<path d="M103.207 180.803C104.793 180.803 106.079 179.517 106.079 177.93C106.079 176.343 104.793 175.057 103.207 175.057C101.62 175.057 100.334 176.343 100.334 177.93C100.334 179.517 101.62 180.803 103.207 180.803Z" fill="#505050"/>
<path d="M112.577 180.803C114.163 180.803 115.449 179.517 115.449 177.93C115.449 176.343 114.163 175.057 112.577 175.057C110.99 175.057 109.704 176.343 109.704 177.93C109.704 179.517 110.99 180.803 112.577 180.803Z" fill="#505050"/>
<path d="M103.207 209.535C104.793 209.535 106.079 208.248 106.079 206.661C106.079 205.074 104.793 203.788 103.207 203.788C101.62 203.788 100.334 205.074 100.334 206.661C100.334 208.248 101.62 209.535 103.207 209.535Z" fill="#505050"/>
<path d="M112.577 209.535C114.163 209.535 115.449 208.248 115.449 206.661C115.449 205.074 114.163 203.788 112.577 203.788C110.99 203.788 109.704 205.074 109.704 206.661C109.704 208.248 110.99 209.535 112.577 209.535Z" fill="#505050"/>
<path d="M308.842 311H10.0219C9.38222 311 8.86406 310.773 8.86406 310.493C8.86406 310.213 9.38222 309.986 10.0219 309.986H308.842C309.481 309.986 310 310.213 310 310.493C310 310.773 309.481 311 308.842 311Z" fill="#3F3D56"/>
<path d="M235.014 203.757C235.218 203.851 235.415 203.96 235.601 204.085L254.268 196.116L254.935 191.198L262.393 191.152L261.953 202.433L237.314 208.95C237.262 209.121 237.2 209.289 237.128 209.453C236.772 210.213 236.199 210.851 235.481 211.287C234.764 211.723 233.934 211.937 233.095 211.902C232.256 211.867 231.446 211.585 230.767 211.092C230.088 210.598 229.57 209.915 229.278 209.128C228.986 208.341 228.933 207.485 229.125 206.668C229.318 205.85 229.747 205.108 230.36 204.534C230.973 203.961 231.742 203.581 232.57 203.443C233.398 203.304 234.248 203.414 235.014 203.757Z" fill="#FFB8B8"/>
<path d="M265.106 305.981H260.004L257.576 286.296L265.107 286.296L265.106 305.981Z" fill="#FFB8B8"/>
<path d="M256.359 304.523H266.199V310.72H250.163C250.163 309.077 250.816 307.5 251.978 306.338C253.14 305.176 254.716 304.523 256.359 304.523Z" fill="#2F2E41"/>
<path d="M284.95 304.539L279.872 305.04L275.527 285.687L283.021 284.949L284.95 304.539Z" fill="#FFB8B8"/>
<path d="M276.102 303.946L285.896 302.981L286.503 309.148L270.544 310.72C270.464 309.911 270.545 309.093 270.781 308.314C271.017 307.535 271.404 306.811 271.92 306.182C272.437 305.552 273.072 305.031 273.789 304.648C274.507 304.264 275.293 304.025 276.102 303.946Z" fill="#2F2E41"/>
<path d="M266.526 170.318C272.172 170.318 276.749 165.741 276.749 160.094C276.749 154.447 272.172 149.869 266.526 149.869C260.881 149.869 256.304 154.447 256.304 160.094C256.304 165.741 260.881 170.318 266.526 170.318Z" fill="#FFB8B8"/>
<path d="M258.863 302C258.425 302.001 258 301.848 257.664 301.566C257.328 301.284 257.102 300.893 257.026 300.461C254.385 285.797 245.752 237.849 245.546 236.521C245.541 236.49 245.539 236.459 245.539 236.429V232.854C245.539 232.723 245.58 232.596 245.655 232.491L246.796 230.893C246.85 230.816 246.921 230.753 247.004 230.707C247.086 230.662 247.178 230.637 247.272 230.633C253.774 230.328 275.067 229.434 276.096 230.72C277.129 232.012 276.764 235.926 276.68 236.698L276.684 236.778L286.25 297.971C286.325 298.459 286.205 298.957 285.916 299.357C285.626 299.757 285.191 300.027 284.704 300.108L278.729 301.093C278.284 301.164 277.828 301.074 277.445 300.837C277.061 300.601 276.774 300.235 276.638 299.805C274.79 293.899 268.593 274.03 266.446 266.341C266.432 266.293 266.401 266.25 266.359 266.223C266.317 266.195 266.266 266.184 266.216 266.191C266.166 266.198 266.12 266.223 266.088 266.261C266.055 266.299 266.037 266.348 266.037 266.399C266.145 273.728 266.404 292.427 266.494 298.885L266.503 299.581C266.507 300.051 266.334 300.507 266.019 300.856C265.704 301.206 265.269 301.425 264.8 301.469L259.038 301.993C258.98 301.998 258.921 302 258.863 302Z" fill="#2F2E41"/>
<path d="M260.039 174.339C258.255 175.399 257.188 177.349 256.575 179.332C255.441 183.004 254.758 186.801 254.542 190.638L253.895 202.128L245.881 232.588C252.827 238.466 256.833 237.13 266.183 232.322C275.533 227.514 276.601 233.925 276.601 233.925L278.471 208.008L281.142 179.686C280.543 178.964 279.864 178.312 279.119 177.741C276.65 175.82 273.777 174.485 270.717 173.837C267.658 173.188 264.491 173.243 261.455 173.996L260.039 174.339Z" fill="#505050"/>
<path d="M257.436 209.909C257.652 209.99 257.86 210.088 258.061 210.202L276.518 200.962L276.824 195.956L284.438 195.431L284.846 206.842L260.18 215.001C259.979 215.865 259.519 216.647 258.862 217.244C258.206 217.84 257.383 218.223 256.504 218.34C255.625 218.457 254.73 218.304 253.94 217.901C253.15 217.498 252.502 216.863 252.081 216.082C251.66 215.301 251.487 214.411 251.584 213.529C251.682 212.647 252.045 211.816 252.627 211.145C253.208 210.475 253.98 209.998 254.839 209.777C255.698 209.556 256.604 209.602 257.436 209.909Z" fill="#FFB8B8"/>
<path d="M281.009 179.816C285.55 181.419 286.35 198.788 286.35 198.788C281.007 195.849 274.596 200.658 274.596 200.658C274.596 200.658 273.26 196.116 271.658 190.238C271.174 188.584 271.116 186.835 271.489 185.153C271.863 183.472 272.656 181.912 273.794 180.619C273.794 180.619 276.467 178.212 281.009 179.816Z" fill="#505050"/>
<path d="M275.692 162.798C274.419 161.779 272.681 163.631 272.681 163.631L271.662 154.459C271.662 154.459 265.294 155.222 261.218 154.204C257.143 153.187 256.506 157.899 256.506 157.899C256.296 155.995 256.253 154.077 256.379 152.166C256.633 149.873 259.945 147.58 265.803 146.051C271.662 144.522 274.719 151.147 274.719 151.147C278.795 153.185 276.966 163.817 275.692 162.798Z" fill="#2F2E41"/>
</g>
<defs>
<clipPath id="clip0_3_33">
<rect width="310" height="311" fill="white"/>
</clipPath>
</defs>
</svg>
